<?xml version="1.0" standalone="no"?><!DOCTYPE svg PUBLIC "-//W3C//DTD SVG 1.1//EN" "http://www.w3.org/Graphics/SVG/1.1/DTD/svg11.dtd"><svg t="1725683845537" class="icon" viewBox="0 0 1024 1024" version="1.1" xmlns="http://www.w3.org/2000/svg" p-id="9419" xmlns:xlink="http://www.w3.org/1999/xlink" width="256" height="256"><path d="M512 974.222222A347.875556 347.875556 0 0 1 155.875556 625.777778a315.733333 315.733333 0 0 1 38.115555-167.537778 386.275556 386.275556 0 0 1 58.595556-74.24l20.48-22.471111 13.368889-14.791111a231.822222 231.822222 0 0 0 45.226666-65.422222 500.622222 500.622222 0 0 0 40.106667-193.422223 38.115556 38.115556 0 0 1 62.293333-28.444444l19.626667 15.928889A700.302222 700.302222 0 0 1 607.288889 227.555556a711.111111 711.111111 0 0 1 77.937778 170.666666 161.564444 161.564444 0 0 0 25.884444-72.533333 38.115556 38.115556 0 0 1 30.151111-32.711111 37.546667 37.546667 0 0 1 40.96 19.911111 540.444444 540.444444 0 0 1 56.888889 133.688889 500.053333 500.053333 0 0 1 28.444445 174.933333A355.555556 355.555556 0 0 1 512 974.222222zM442.311111 162.702222A508.302222 508.302222 0 0 1 398.222222 316.871111a306.915556 306.915556 0 0 1-56.888889 81.066667l-12.8 14.222222-21.617777 23.608889a321.991111 321.991111 0 0 0-48.071112 63.715555A244.906667 244.906667 0 0 0 232.106667 625.777778 272.497778 272.497778 0 0 0 512 897.991111a279.324444 279.324444 0 0 0 280.177778-277.902222 426.666667 426.666667 0 0 0-24.177778-151.04c-4.835556-15.36-9.102222-28.444444-12.8-38.115556a236.373333 236.373333 0 0 1-63.715556 68.551111l-2.844444 1.991112A38.115556 38.115556 0 0 1 625.777778 471.324444a736.426667 736.426667 0 0 0-82.488889-199.111111 530.773333 530.773333 0 0 0-100.977778-109.511111z" fill="#515151" p-id="9420"></path></svg>